<svg width="196" height="196" viewBox="0 0 196 196" fill="none" xmlns="http://www.w3.org/2000/svg">
<path d="M80.1172 138.062C77.7839 134.344 75.4505 130.953 73.1172 127.891C70.8568 124.828 68.487 121.875 66.0078 119.031C63.5286 116.115 60.9036 113.198 58.1328 110.281C55.4349 107.365 52.4818 104.266 49.2734 100.984C44.6797 96.1719 40.8516 92.599 37.7891 90.2656C34.7995 87.9323 32.2839 86.5833 30.2422 86.2188C28.2734 85.8542 26.6328 86.4375 25.3203 87.9688C24.0078 89.4271 22.7318 91.6146 21.4922 94.5312C20.2526 97.375 18.9401 100.839 17.5547 104.922C16.1693 109.005 14.3828 113.453 12.1953 118.266C11.4661 119.797 10.6276 121.583 9.67969 123.625C8.80469 125.594 7.5651 127.125 5.96094 128.219C4.72135 129.021 4.17448 128.656 4.32031 127.125C4.46615 125.521 5.04948 123.26 6.07031 120.344C7.09115 117.427 8.36719 114.146 9.89844 110.5C11.5026 106.781 13.0703 103.208 14.6016 99.7812C16.1328 96.3542 17.4818 93.401 18.6484 90.9219C19.8151 88.3698 20.5443 86.8021 20.8359 86.2188C22.5859 82.0625 24.3724 78.2708 26.1953 74.8438C28.0182 71.3438 29.8047 67.9167 31.5547 64.5625C33.3776 61.2083 35.1276 57.7812 36.8047 54.2812C38.5547 50.7812 40.1589 46.9167 41.6172 42.6875C42.2734 42.25 42.8568 42.1406 43.3672 42.3594C43.8776 42.5052 44.3151 42.7969 44.6797 43.2344C45.0443 43.6719 45.263 44.2188 45.3359 44.875C45.4818 45.4583 45.4818 45.9688 45.3359 46.4062C44.8984 47.2812 44.2057 48.6667 43.2578 50.5625C42.3828 52.3854 41.4349 54.3177 40.4141 56.3594C39.4661 58.3281 38.5547 60.2604 37.6797 62.1562C36.8047 63.9792 36.1484 65.3646 35.7109 66.3125C35.5651 66.6771 35.2734 67.4427 34.8359 68.6094C34.3984 69.7031 34.2526 70.6146 34.3984 71.3438C36.513 71.7812 39.138 71.599 42.2734 70.7969C45.4818 69.9948 48.9089 68.8281 52.5547 67.2969C56.2734 65.7656 60.1016 64.0156 64.0391 62.0469C68.0495 60.0052 71.8411 58 75.4141 56.0312C79.0599 54.0625 82.3411 52.2396 85.2578 50.5625C88.2474 48.8125 90.6536 47.5 92.4766 46.625C94.2266 45.75 95.138 45.6042 95.2109 46.1875C95.2839 46.7708 94.8828 47.6458 94.0078 48.8125C93.2057 49.9792 92.1484 51.2188 90.8359 52.5312C89.5964 53.7708 88.5026 54.6458 87.5547 55.1562C86.8255 55.5938 85.7318 56.2135 84.2734 57.0156C82.8151 57.7448 81.2839 58.5104 79.6797 59.3125C78.0755 60.0417 76.6172 60.7344 75.3047 61.3906C73.9922 62.0469 73.1172 62.4479 72.6797 62.5938C70.7109 63.4688 68.2318 64.4531 65.2422 65.5469C62.2526 66.6406 59.1172 67.8073 55.8359 69.0469C52.6276 70.2865 49.4193 71.6354 46.2109 73.0938C43.0755 74.4792 40.3776 75.9375 38.1172 77.4688C37.5339 77.9062 37.0234 78.3438 36.5859 78.7812C36.2214 79.1458 35.8932 79.5469 35.6016 79.9844C35.3828 80.4219 35.4193 80.8229 35.7109 81.1875C36.8047 81.8438 38.4818 83.1562 40.7422 85.125C43.0026 87.0938 45.5547 89.4271 48.3984 92.125C51.2422 94.8229 54.2318 97.8125 57.3672 101.094C60.5755 104.375 63.6745 107.693 66.6641 111.047C69.6536 114.401 72.388 117.682 74.8672 120.891C77.3464 124.099 79.3151 126.979 80.7734 129.531C82.3047 132.156 83.1797 134.344 83.3984 136.094C83.6172 137.844 82.9245 138.901 81.3203 139.266C81.1745 139.193 80.9557 139.01 80.6641 138.719C80.4453 138.427 80.263 138.208 80.1172 138.062ZM95.4297 125.484C93.6797 124.026 92.6953 121.875 92.4766 119.031C92.3307 116.188 92.7318 112.979 93.6797 109.406C94.7005 105.833 96.1589 102.115 98.0547 98.25C100.023 94.3125 102.284 90.5938 104.836 87.0938C107.388 83.5208 110.159 80.349 113.148 77.5781C116.138 74.7344 119.128 72.6562 122.117 71.3438C125.107 69.9583 128.023 69.4844 130.867 69.9219C133.711 70.2865 136.299 71.9271 138.633 74.8438C140.091 76.6667 140.966 78.526 141.258 80.4219C141.549 82.2448 141.513 84.1406 141.148 86.1094C140.784 88.0052 140.201 89.974 139.398 92.0156C138.596 93.9844 137.794 95.9896 136.992 98.0312C136.263 100.073 135.643 102.151 135.133 104.266C134.695 106.38 134.622 108.531 134.914 110.719C135.279 113.49 136.518 115.13 138.633 115.641C140.747 116.151 143.263 116.005 146.18 115.203C149.169 114.401 152.305 113.125 155.586 111.375C158.867 109.625 161.893 107.875 164.664 106.125C167.508 104.375 169.841 102.844 171.664 101.531C173.56 100.219 174.508 99.5625 174.508 99.5625C176.549 99.125 177.68 99.2708 177.898 100C178.19 100.656 177.789 101.677 176.695 103.062C175.674 104.375 174.107 105.906 171.992 107.656C169.878 109.333 167.471 110.974 164.773 112.578C162.076 114.182 159.195 115.641 156.133 116.953C153.07 118.266 150.081 119.177 147.164 119.688C144.247 120.125 141.477 120.089 138.852 119.578C136.299 118.995 134.185 117.682 132.508 115.641C131.706 114.766 131.086 113.891 130.648 113.016C130.284 112.141 129.664 111.375 128.789 110.719C127.695 111.74 126.383 113.089 124.852 114.766C123.32 116.37 121.643 118.01 119.82 119.688C118.07 121.292 116.174 122.823 114.133 124.281C112.164 125.74 110.122 126.833 108.008 127.562C105.893 128.292 103.742 128.547 101.555 128.328C99.4401 128.109 97.3984 127.161 95.4297 125.484ZM96.6328 121.766C97.2891 124.099 98.7474 125.193 101.008 125.047C103.268 124.828 105.893 123.698 108.883 121.656C111.872 119.615 114.971 116.844 118.18 113.344C121.388 109.771 124.268 105.833 126.82 101.531C129.372 97.1562 131.305 92.5625 132.617 87.75C134.003 82.9375 134.367 78.1979 133.711 73.5312C131.961 72.1458 129.773 72.1094 127.148 73.4219C124.523 74.6615 121.716 76.7396 118.727 79.6562C115.81 82.5 112.893 85.9271 109.977 89.9375C107.133 93.875 104.617 97.8854 102.43 101.969C100.242 105.979 98.5651 109.771 97.3984 113.344C96.3047 116.917 96.0495 119.724 96.6328 121.766ZM167.18 126.797C170.169 117.172 172.867 109.552 175.273 103.938C177.753 98.25 179.794 94.276 181.398 92.0156C183.076 89.7552 184.206 89.026 184.789 89.8281C185.372 90.6302 185.299 92.6719 184.57 95.9531C183.914 99.2344 182.456 103.646 180.195 109.188C178.008 114.656 174.909 120.927 170.898 128C170.315 128.219 169.622 128.255 168.82 128.109C168.018 127.964 167.471 127.526 167.18 126.797ZM186.32 74.1875C186.174 73.8229 186.102 73.1667 186.102 72.2188C186.102 71.2708 186.174 70.6875 186.32 70.4688C187.997 69.8854 189.273 69.8125 190.148 70.25C191.023 70.6875 191.57 71.3438 191.789 72.2188C192.008 73.0208 191.971 73.8958 191.68 74.8438C191.461 75.7917 191.06 76.5208 190.477 77.0312C189.893 77.4688 189.201 77.5417 188.398 77.25C187.669 76.8854 186.977 75.8646 186.32 74.1875Z" fill="#1A202C"/>
</svg>
